<svg version="1.1" id="Layer_1" xmlns="http://www.w3.org/2000/svg" xmlns:xlink="http://www.w3.org/1999/xlink" x="0px" y="0px"
	 width="100%" viewBox="0 0 500 500" enable-background="new 0 0 500 500" xml:space="preserve">
<path fill="#FFFFFF" opacity="1.000000" stroke="none" 
	d="
M349.000000,501.000000 
	C232.666687,501.000000 116.833389,501.000000 1.000062,501.000000 
	C1.000041,334.333405 1.000041,167.666809 1.000021,1.000152 
	C167.666550,1.000101 334.333099,1.000101 500.999756,1.000051 
	C500.999817,167.666519 500.999817,334.333038 500.999908,500.999786 
	C450.500000,501.000000 400.000000,501.000000 349.000000,501.000000 
M394.004425,250.499603 
	C394.408173,171.089050 328.501556,103.906792 244.925110,107.086952 
	C206.451553,108.550903 173.366470,123.250542 146.888855,151.292801 
	C110.873024,189.436920 100.336761,234.818329 110.974098,286.241089 
	C97.984596,286.241089 85.364708,286.241089 72.004700,286.241089 
	C78.764542,292.367493 84.807701,297.844330 91.038025,303.490814 
	C84.850395,309.188110 78.817047,314.743347 71.700172,321.296234 
	C74.842300,321.296234 76.438950,321.296234 78.035591,321.296234 
	C92.202141,321.296234 106.370354,321.414215 120.534081,321.214233 
	C124.121223,321.163605 126.097092,322.283417 128.075455,325.371307 
	C155.071533,367.507599 193.486481,391.647339 243.559570,393.636017 
	C299.507172,395.858002 342.915680,371.967529 373.243713,324.767853 
	C374.885956,322.212036 376.591888,321.200104 379.628845,321.229095 
	C394.960663,321.375366 410.294617,321.301453 425.627838,321.287506 
	C427.035217,321.286224 428.442444,321.162994 430.994568,321.042206 
	C424.141846,314.709778 418.129211,309.153656 411.982666,303.473755 
	C418.355988,297.694000 424.436157,292.180145 431.348633,285.911469 
	C416.825531,285.911469 403.544312,285.911469 390.826660,285.911469 
	C391.902649,274.256165 392.953522,262.872711 394.004425,250.499603 
z"/>
<path fill="#217351" opacity="1.000000" stroke="none" 
	d="
M394.004395,250.994446 
	C392.953522,262.872711 391.902649,274.256165 390.826660,285.911469 
	C403.544312,285.911469 416.825531,285.911469 431.348633,285.911469 
	C424.436157,292.180145 418.355988,297.694000 411.982666,303.473755 
	C418.129211,309.153656 424.141846,314.709778 430.994568,321.042206 
	C428.442444,321.162994 427.035217,321.286224 425.627838,321.287506 
	C410.294617,321.301453 394.960663,321.375366 379.628845,321.229095 
	C376.591888,321.200104 374.885956,322.212036 373.243713,324.767853 
	C342.915680,371.967529 299.507172,395.858002 243.559570,393.636017 
	C193.486481,391.647339 155.071533,367.507599 128.075455,325.371307 
	C126.097092,322.283417 124.121223,321.163605 120.534081,321.214233 
	C106.370354,321.414215 92.202141,321.296234 78.035591,321.296234 
	C76.438950,321.296234 74.842300,321.296234 71.700172,321.296234 
	C78.817047,314.743347 84.850395,309.188110 91.038025,303.490814 
	C84.807701,297.844330 78.764542,292.367493 72.004700,286.241089 
	C85.364708,286.241089 97.984596,286.241089 110.974098,286.241089 
	C100.336761,234.818329 110.873024,189.436920 146.888855,151.292801 
	C173.366470,123.250542 206.451553,108.550903 244.925110,107.086952 
	C328.501556,103.906792 394.408173,171.089050 394.004395,250.994446 
M192.080063,304.910461 
	C192.080063,301.702789 192.080063,298.495087 192.080063,295.287415 
	C191.471130,295.293427 190.862198,295.299469 190.253265,295.305481 
	C190.083145,299.036713 189.892715,302.767670 189.836746,306.500610 
	C189.834976,306.617676 191.221329,306.755524 192.479324,306.883698 
	C192.369324,306.522858 192.259308,306.161987 192.080063,304.910461 
M171.214233,306.880585 
	C172.287415,306.880585 173.360596,306.880585 174.433777,306.880585 
	C174.435593,306.659393 174.437408,306.438202 174.439209,306.217010 
	C173.356491,306.074005 172.273773,305.931000 170.884308,305.079071 
	C170.574570,302.454529 170.264847,299.829987 169.975998,297.382477 
	C165.750351,299.852722 165.827377,303.311005 171.214233,306.880585 
M269.206390,305.984192 
	C268.315125,305.418793 267.423859,304.853363 266.288330,304.132996 
	C268.447205,302.947723 269.843689,302.181000 271.240173,301.414276 
	C271.021790,300.839417 270.803436,300.264557 270.585052,299.689667 
	C268.576385,300.217255 266.362457,300.412689 264.673004,301.456757 
	C264.099976,301.810883 264.319519,305.093536 265.124237,305.638214 
	C266.278778,306.419678 268.301453,305.918549 270.281555,305.936584 
	C270.192932,305.969391 270.104279,306.002197 269.206390,305.984192 
M358.635284,301.712830 
	C358.388092,300.829834 358.161987,299.188721 357.890472,299.181183 
	C355.193359,299.106262 352.488770,299.301300 348.627686,299.470947 
	C351.795227,301.603851 347.347229,306.789673 352.542511,306.999817 
	C353.107391,304.690216 353.277618,302.820465 354.122437,301.334198 
	C354.344177,300.944092 356.656982,301.742554 358.048645,302.085846 
	C358.048645,302.085846 357.988129,301.964111 358.635284,301.712830 
M205.500000,285.930176 
	C262.127686,285.930176 318.755341,285.930176 375.259491,285.930176 
	C388.462860,241.907059 377.598022,183.404556 328.530304,145.869476 
	C283.653107,111.540016 217.391815,111.567551 172.073029,146.210464 
	C123.639343,183.234497 112.438271,241.468735 125.711174,285.930145 
	C151.893219,285.930145 178.196609,285.930145 205.500000,285.930176 
M259.500000,321.251465 
	C220.460876,321.251465 181.421738,321.251465 141.935547,321.251465 
	C163.273209,355.626709 207.134338,385.183990 263.465424,379.677460 
	C304.114380,375.703918 335.742462,355.647156 359.732147,321.251709 
	C325.743103,321.251709 293.121552,321.251709 259.500000,321.251465 
M379.905365,304.478912 
	C378.381927,300.326721 375.586121,297.498871 370.860046,295.747833 
	C370.860046,299.705719 370.860046,303.206207 370.860046,307.709900 
	C373.872772,306.851105 376.743103,306.032867 379.905365,304.478912 
M159.139389,304.411804 
	C160.159882,302.821350 161.180359,301.230896 162.537155,299.116302 
	C160.273712,299.283203 156.886734,298.776672 156.430573,299.707062 
	C155.007294,302.610107 154.692444,306.056641 153.690643,310.410309 
	C156.818436,309.862610 159.237900,309.438934 161.657349,309.015289 
	C160.864883,307.733276 160.072403,306.451263 159.139389,304.411804 
M311.279266,305.029419 
	C312.240540,303.448151 313.201843,301.866882 314.331085,300.009308 
	C308.883179,302.683441 310.034760,296.799530 307.984039,295.045288 
	C305.197662,298.716858 310.645355,304.946503 303.819336,307.470581 
	C306.173828,306.885864 308.528320,306.301117 311.279266,305.029419 
M103.299965,305.054138 
	C103.240005,302.753510 102.465096,300.073975 103.403877,298.302673 
	C103.918869,297.330933 107.324097,297.890961 109.426109,297.760284 
	C107.942612,296.497559 105.560776,295.426575 103.994164,296.141663 
	C102.070770,297.019562 99.899277,299.233887 99.575996,301.162323 
	C99.301018,302.802582 101.080994,305.620880 102.716408,306.507385 
	C104.270882,307.349976 106.816376,306.364227 108.926109,306.182434 
	C108.877739,305.889404 108.829361,305.596405 108.780991,305.303375 
	C107.140488,305.388489 105.499985,305.473602 103.299965,305.054138 
M218.960571,306.193207 
	C220.051590,306.519104 221.142609,306.844971 221.806320,307.043243 
	C222.092361,304.750427 221.938019,301.751709 222.589218,301.565155 
	C224.510880,301.014740 226.751328,301.577240 229.480896,301.741119 
	C226.796173,296.497955 222.139954,300.793884 219.069733,299.220764 
	C219.069733,301.532379 219.069733,303.459534 218.960571,306.193207 
M195.113312,303.864227 
	C194.833557,305.836700 194.706299,307.390717 197.683853,307.065643 
	C201.803894,306.615784 202.178223,304.374420 201.134827,300.380219 
	C200.473236,302.721375 200.003586,304.383301 199.533920,306.045227 
	C198.229675,304.880005 198.169830,303.784027 197.768829,302.831726 
	C197.238647,301.572693 196.441284,300.426208 195.758774,299.231323 
	C195.542435,300.502289 195.326111,301.773285 195.113312,303.864227 
M324.671082,296.846832 
	C322.422180,294.955475 322.000519,296.100616 322.060394,298.348419 
	C322.133789,301.101715 322.077911,303.858429 322.077911,306.783356 
	C324.378662,306.783356 326.945526,306.783356 329.512390,306.783356 
	C329.525574,306.612183 329.538788,306.441010 329.552002,306.269836 
	C327.813416,306.091187 326.074860,305.912537 324.201904,305.720062 
	C324.340149,302.840240 324.463409,300.273010 324.671082,296.846832 
M259.841431,303.118988 
	C260.518402,304.341431 257.572418,307.898315 262.115417,306.739502 
	C261.253815,296.036896 261.253815,296.036896 259.842468,295.561066 
	C259.842468,297.782990 259.842468,300.034668 259.841431,303.118988 
M242.887100,304.599396 
	C242.562729,305.248444 242.238373,305.897491 241.823700,306.727234 
	C243.292984,306.727234 244.668060,306.727234 245.459473,306.727234 
	C245.296448,304.510681 245.064728,302.527313 245.022583,300.539917 
	C244.939072,296.601257 244.982300,296.600342 242.922546,296.559052 
	C242.922546,298.968658 242.922546,301.394440 242.887100,304.599396 
M130.101440,297.986389 
	C129.990814,297.405029 129.880188,296.823700 129.686417,295.805450 
	C126.779205,300.649902 127.380890,306.501404 129.539093,306.544708 
	C130.322510,304.086578 131.069550,301.879639 131.664001,299.632355 
	C131.714737,299.440613 130.749329,298.980042 130.101440,297.986389 
M216.648285,306.160919 
	C216.541885,304.237030 216.435501,302.313141 216.294754,299.768097 
	C215.029449,301.276917 214.285873,302.163574 213.601578,302.979584 
	C214.462662,304.078705 215.249832,305.083496 216.648285,306.160919 
z"/>
<path fill="#FBBD03" opacity="1.000000" stroke="none" 
	d="
M205.000000,285.930176 
	C178.196609,285.930145 151.893219,285.930145 125.711174,285.930145 
	C112.438271,241.468735 123.639343,183.234497 172.073029,146.210464 
	C217.391815,111.567551 283.653107,111.540016 328.530304,145.869476 
	C377.598022,183.404556 388.462860,241.907059 375.259491,285.930176 
	C318.755341,285.930176 262.127686,285.930176 205.000000,285.930176 
M261.170258,137.395264 
	C260.711151,137.569824 260.252045,137.744385 259.210083,138.234665 
	C256.239166,142.645645 253.268250,147.056610 251.045044,150.357422 
	C248.337982,146.540680 245.278580,142.227127 241.936630,137.402710 
	C241.563080,137.601837 241.189545,137.800980 240.668747,138.880585 
	C242.129013,144.239731 243.589279,149.598892 244.725220,155.189667 
	C244.725220,155.189667 244.407669,155.430328 243.748535,155.197479 
	C238.570679,151.014359 232.342758,152.204880 226.311386,151.819000 
	C231.271118,156.113464 235.727127,161.131958 243.051193,161.432724 
	C243.007477,161.612457 242.963776,161.792206 242.154022,161.989807 
	C235.566299,162.922806 231.202805,167.151291 226.873917,171.431076 
	C227.122635,172.020828 227.371353,172.610596 227.620071,173.200363 
	C232.873108,171.564087 238.126144,169.927811 243.774323,168.770096 
	C243.924011,168.912918 244.073685,169.055725 244.036499,169.927307 
	C241.364212,174.954178 241.186096,180.301636 241.800751,185.829376 
	C245.677963,181.064835 250.697495,177.041199 250.536026,169.923462 
	C250.706802,169.881790 250.877579,169.840103 251.636002,170.246750 
	C252.972168,176.456467 256.900726,180.896240 261.010468,185.212296 
	C261.534546,185.006439 262.058594,184.800568 262.582672,184.594711 
	C261.424072,179.458603 260.265472,174.322510 259.158661,169.416031 
	C263.674774,170.038544 268.865326,170.754013 274.699677,171.288773 
	C274.502899,170.764999 274.306091,170.241226 273.811768,169.125153 
	C269.536682,166.751663 265.261627,164.378174 260.730042,161.359970 
	C260.875854,160.926819 261.021667,160.493683 261.907959,160.130432 
	C266.438477,157.616959 270.968994,155.103470 275.499512,152.589981 
	C275.166443,151.804504 274.833405,151.019012 274.500336,150.233536 
	C269.504822,151.380264 264.509338,152.527008 259.084717,153.115921 
	C258.926117,152.945435 258.767487,152.774933 258.856598,151.881836 
	C259.666718,147.252441 260.476868,142.623047 261.170258,137.395264 
M214.096954,254.548431 
	C212.186295,259.330078 210.397110,264.164948 208.330750,268.878326 
	C206.268387,273.582611 203.054840,274.218506 199.469055,270.504303 
	C195.800735,266.704559 192.469711,262.579193 188.839386,258.422729 
	C190.709732,257.505219 192.751999,257.159882 193.555923,255.974625 
	C195.320343,253.373199 197.541107,250.335373 197.511551,247.497208 
	C197.487549,245.193329 194.934937,241.819046 192.670410,240.832611 
	C184.580338,237.308502 176.012115,239.264954 168.873383,239.201309 
	C169.965759,242.307449 171.538864,244.969925 171.741623,247.732971 
	C172.166824,253.527298 171.806793,259.375519 171.894119,265.199738 
	C171.952271,269.077332 172.146942,272.910278 167.216064,274.569336 
	C173.221771,274.569336 179.227478,274.569336 186.070190,274.569336 
	C178.315582,270.773468 177.450165,268.516937 179.752670,258.141418 
	C183.007004,261.932068 186.262985,264.964508 188.574295,268.597931 
	C191.903427,273.831360 196.111176,275.849518 202.256195,275.118408 
	C206.648590,274.595764 211.153259,275.016846 214.781158,275.016846 
	C213.636963,272.422974 212.129669,270.564392 212.164993,268.735626 
	C212.223984,265.681732 213.840668,263.454254 217.620758,264.012543 
	C219.412537,264.277161 221.303741,264.260590 223.100479,264.012939 
	C226.210037,263.584351 227.258774,265.174927 228.427322,267.798340 
	C230.135727,271.633728 227.664780,272.824493 223.679596,274.575745 
	C231.083710,274.575745 236.834000,274.575745 242.584305,274.575745 
	C237.086670,272.641388 236.091919,267.639130 234.277496,263.354645 
	C231.232742,256.164917 228.416336,248.877808 225.318939,241.711594 
	C224.755127,240.407150 223.308517,239.484283 222.269424,238.385284 
	C221.239838,239.521820 219.853485,240.495865 219.247833,241.825516 
	C217.459396,245.751831 215.979752,249.818802 214.096954,254.548431 
M278.882416,268.536835 
	C279.979431,269.549591 280.990784,270.679016 282.186737,271.557007 
	C293.441864,279.819641 310.651611,274.458008 314.015198,261.672668 
	C316.148804,253.562454 312.408508,245.151215 304.826721,241.009491 
	C296.521179,236.472427 285.912262,238.039139 279.592438,244.736069 
	C273.452271,251.242630 273.010925,259.797729 278.882416,268.536835 
M243.935104,265.102234 
	C243.935104,268.205383 243.935104,271.308533 243.935104,273.666077 
	C246.681030,273.874084 248.239319,274.009918 249.800034,274.106873 
	C253.714737,274.349976 257.734741,275.232941 261.518188,274.633270 
	C265.766602,273.959900 269.146759,271.169952 269.973877,266.502472 
	C270.846161,261.580170 268.505310,258.068695 264.336853,255.816437 
	C261.127563,254.082397 257.472473,253.086075 254.478119,251.073563 
	C252.605606,249.815048 251.591202,247.279785 250.191757,245.317429 
	C252.464951,244.043320 254.865768,241.576935 256.978363,241.803070 
	C259.503296,242.073334 261.851074,244.554443 264.131592,246.269440 
	C265.003754,246.925308 265.477753,248.110657 266.756012,249.951843 
	C266.756012,245.656464 266.756012,242.646652 266.756012,240.559219 
	C264.481415,240.085373 262.777863,239.914856 261.203705,239.370255 
	C254.770325,237.144501 247.834641,239.287323 245.513840,244.329346 
	C242.948715,249.902237 245.579422,255.298096 252.638245,258.720093 
	C255.179993,259.952271 258.085754,260.607361 260.333618,262.213928 
	C261.968933,263.382660 264.044373,266.009003 263.680023,267.396240 
	C263.184357,269.283447 260.791962,271.423340 258.786346,272.019318 
	C253.240433,273.667419 248.947433,271.151703 246.259140,265.658112 
	C245.844971,264.811707 245.005630,264.173340 244.362930,263.438782 
	C244.227280,263.715637 244.091629,263.992523 243.935104,265.102234 
M230.317154,193.952896 
	C222.888367,193.952896 215.459579,193.952896 209.141174,193.952896 
	C210.291092,197.232666 211.721664,199.647247 211.895081,202.148972 
	C212.273849,207.613525 212.063171,213.122971 211.998520,218.612961 
	C211.949036,222.816452 213.504883,227.758545 207.444855,229.521393 
	C213.497971,229.521393 219.551071,229.521393 226.748291,229.521393 
	C218.321884,225.955292 217.777115,224.610687 219.492889,213.872757 
	C224.294922,212.754654 227.665146,214.526871 230.069580,218.941956 
	C230.069580,214.339294 230.069580,209.736633 230.069580,205.133957 
	C227.757462,209.737457 224.445602,211.647263 219.366760,210.585022 
	C219.366760,206.065933 219.366760,201.526932 219.366760,197.035202 
	C229.838104,195.995132 230.095047,196.099030 236.963776,204.691742 
	C236.701202,200.458038 236.508133,197.344879 236.297760,193.952911 
	C234.235931,193.952911 232.751450,193.952911 230.317154,193.952896 
M270.522339,193.955780 
	C266.727020,193.955780 262.931702,193.955780 258.793823,193.955780 
	C258.793823,197.589600 258.793823,200.720688 258.793823,203.851776 
	C260.063324,202.592911 260.399292,201.158798 261.050568,199.886047 
	C263.314270,195.462082 267.556458,196.255356 271.153900,196.869247 
	C272.208618,197.049255 273.258148,200.385986 273.374634,202.331924 
	C273.682861,207.479630 273.537018,212.658813 273.462128,217.823883 
	C273.392731,222.610611 274.996979,228.364853 267.428436,229.383789 
	C273.814697,229.383789 280.200989,229.383789 286.587250,229.383789 
	C280.619080,226.618011 280.608429,226.618042 280.592682,219.817383 
	C280.578033,213.484711 280.516754,207.150452 280.648224,200.820480 
	C280.675751,199.494186 281.051331,197.617538 281.961365,196.967850 
	C285.162109,194.682877 291.694061,197.130295 293.248199,200.895828 
	C293.687286,201.959641 294.199310,202.993347 294.677887,204.040863 
	C294.926727,203.946152 295.175537,203.851440 295.424377,203.756729 
	C295.424377,200.603149 295.424377,197.449585 295.424377,193.955872 
	C287.144806,193.955872 279.329620,193.955872 270.522339,193.955780 
M252.033401,193.951218 
	C248.078079,193.951218 244.122757,193.951218 241.334305,193.951218 
	C242.448380,197.246918 243.909836,199.808975 244.087570,202.457184 
	C244.475662,208.239670 244.188339,214.066101 244.221222,219.874329 
	C244.243256,223.766266 244.792282,227.872604 239.723160,229.556366 
	C245.088928,229.556366 250.454681,229.556366 256.545959,229.556366 
	C249.159485,224.946793 248.903351,199.626144 255.992996,194.404327 
	C254.689392,194.214111 253.793381,194.083374 252.033401,193.951218 
M330.146332,244.226288 
	C331.365265,242.681702 332.584229,241.137115 333.905945,239.462326 
	C328.885254,239.462326 323.996155,239.462326 320.411194,239.462326 
	C321.342285,242.515717 322.691742,245.266037 322.933929,248.110626 
	C323.341888,252.902832 323.074402,257.755035 323.040161,262.581665 
	C323.008026,267.111847 324.386414,272.204529 316.704651,274.507477 
	C323.903290,274.507477 329.309174,274.507477 334.715088,274.507477 
	C330.065460,272.922607 329.855347,269.476929 329.959137,265.583435 
	C330.140961,258.763885 330.037476,251.936783 330.146332,244.226288 
M301.345459,170.922974 
	C303.756165,166.937210 306.166870,162.951431 308.808533,158.583817 
	C296.623291,157.519669 283.946228,167.823944 285.719330,177.547012 
	C288.494385,176.781189 291.327698,176.281143 293.919495,175.201324 
	C296.305695,174.207169 298.432159,172.589676 301.345459,170.922974 
M218.116791,174.513275 
	C217.431595,172.523514 217.188965,170.174210 215.942734,168.640228 
	C214.563400,166.942444 211.759872,166.371292 210.460556,164.644394 
	C206.100677,158.849670 200.047684,159.623688 192.831757,159.103668 
	C196.812744,164.679504 197.425629,171.367294 204.838425,172.392181 
	C206.073776,172.562988 207.137848,173.873230 208.382111,174.098267 
	C211.463455,174.655533 214.603333,174.889252 218.116791,174.513275 
z"/>
<path fill="#F8BC04" opacity="1.000000" stroke="none" 
	d="
M260.000000,321.251587 
	C293.121552,321.251709 325.743103,321.251709 359.732147,321.251709 
	C335.742462,355.647156 304.114380,375.703918 263.465424,379.677460 
	C207.134338,385.183990 163.273209,355.626709 141.935547,321.251465 
	C181.421738,321.251465 220.460876,321.251465 260.000000,321.251587 
M323.137207,334.104431 
	C322.968903,333.523438 322.800568,332.942413 322.632263,332.361420 
	C322.431305,332.394135 322.230377,332.426880 322.029449,332.459595 
	C322.145752,333.441956 322.262054,334.424286 322.765167,336.057770 
	C325.790558,336.576660 328.815979,337.095520 332.023499,337.645660 
	C332.358276,335.073090 330.779785,333.883240 327.656311,334.225769 
	C326.201416,334.385315 324.748993,334.567474 323.137207,334.104431 
M249.284073,360.848816 
	C247.992569,359.084412 246.701050,357.320007 245.409546,355.555573 
	C245.218216,355.772583 245.026886,355.989594 244.835541,356.206604 
	C246.043976,359.913879 247.252396,363.621155 248.460815,367.328430 
	C248.817780,367.435516 249.174728,367.542603 249.531677,367.649689 
	C249.667419,365.422058 249.803162,363.194397 250.090897,360.851532 
	C250.090897,360.851532 250.163239,360.769318 250.163239,360.769318 
	C250.163239,360.769318 249.986938,361.013123 249.284073,360.848816 
M307.620880,354.151794 
	C308.497162,353.759460 309.373474,353.367126 309.948151,353.109833 
	C308.781982,351.265930 307.698914,349.553436 306.437103,347.558289 
	C308.310120,347.024078 309.307678,346.739563 311.388855,346.145996 
	C307.746277,344.903473 305.200562,344.035095 302.012207,342.947510 
	C304.067200,347.477631 305.551453,350.749542 306.735626,354.144928 
	C306.810089,354.080444 306.884521,354.015991 307.620880,354.151794 
M233.327255,357.139587 
	C233.384506,356.389008 233.441772,355.638458 233.499023,354.887878 
	C232.869629,354.841675 231.707077,354.677979 231.687637,354.766205 
	C230.898788,358.345337 230.210968,361.946808 229.533295,365.549774 
	C229.522614,365.606506 229.798080,365.717072 230.170303,365.941132 
	C230.869278,365.899994 231.788452,365.845886 232.671417,365.793945 
	C232.528793,364.049286 232.416077,362.670624 232.305801,361.321655 
	C234.395050,361.321655 236.125320,361.321655 238.399567,361.321655 
	C238.016541,363.418884 237.716171,365.063538 237.210663,367.831390 
	C241.602921,365.819855 239.551743,361.868958 240.650009,359.463745 
	C241.153702,358.360687 240.421371,356.693237 240.249557,355.281708 
	C239.734741,355.368164 239.219940,355.454620 238.705124,355.541077 
	C238.705124,356.930969 238.705124,358.320862 238.705124,361.350250 
	C236.308502,359.858337 234.749283,358.887756 233.327255,357.139587 
M222.655045,352.164642 
	C221.283340,351.966705 219.911652,351.768738 218.539948,351.570801 
	C218.479172,351.809967 218.418381,352.049164 218.357605,352.288361 
	C219.596985,352.726318 220.836365,353.164276 222.523468,353.760437 
	C221.498825,357.064270 220.562119,360.084534 219.531281,363.408325 
	C220.276367,363.527527 221.447083,363.714813 223.393127,364.026154 
	C223.393127,359.832214 223.393127,356.142975 222.655045,352.164642 
M277.973907,363.461853 
	C278.336060,361.334045 278.698242,359.206268 279.031281,357.249664 
	C278.808411,357.312134 277.861389,357.577667 277.232086,357.754120 
	C276.153381,356.146332 275.333099,354.923676 274.512787,353.701050 
	C274.482300,357.386719 275.146790,360.543884 275.987854,363.653259 
	C276.078613,363.988861 277.193451,364.047485 277.973907,363.461853 
M185.311264,343.768677 
	C182.978912,347.319672 182.978912,347.319672 185.141296,348.302032 
	C187.057724,345.193634 188.937408,342.144867 190.866516,339.015930 
	C190.477310,338.789185 189.654694,338.309998 188.778778,337.799744 
	C187.657776,339.756744 186.685059,341.454895 185.311264,343.768677 
M314.081177,342.606476 
	C314.756744,343.490234 315.432312,344.373993 316.107880,345.257751 
	C315.744110,344.748993 315.380341,344.240234 315.016602,343.731476 
	C316.103943,342.750885 317.191284,341.770325 318.278625,340.789734 
	C318.541046,341.319550 318.803497,341.849396 319.065948,342.379211 
	C316.994995,341.184509 314.924072,339.989838 311.646515,338.099060 
	C312.637939,339.971680 313.172241,340.980835 314.081177,342.606476 
M317.240295,345.733276 
	C317.421814,346.720978 317.603302,347.708649 317.784790,348.696350 
	C318.345734,348.423126 318.906647,348.149902 319.467560,347.876678 
	C318.982574,347.194427 318.497589,346.512207 317.240295,345.733276 
z"/>
<path fill="#E1B30A" opacity="1.000000" stroke="none" 
	d="
M379.759399,304.846802 
	C376.743103,306.032867 373.872772,306.851105 370.860046,307.709900 
	C370.860046,303.206207 370.860046,299.705719 370.860046,295.747833 
	C375.586121,297.498871 378.381927,300.326721 379.759399,304.846802 
z"/>
<path fill="#CEAD11" opacity="1.000000" stroke="none" 
	d="
M159.209656,304.790527 
	C160.072403,306.451263 160.864883,307.733276 161.657349,309.015289 
	C159.237900,309.438934 156.818436,309.862610 153.690643,310.410309 
	C154.692444,306.056641 155.007294,302.610107 156.430573,299.707062 
	C156.886734,298.776672 160.273712,299.283203 162.537155,299.116302 
	C161.180359,301.230896 160.159882,302.821350 159.209656,304.790527 
z"/>
<path fill="#BDA717" opacity="1.000000" stroke="none" 
	d="
M311.081055,305.372894 
	C308.528320,306.301117 306.173828,306.885864 303.819336,307.470581 
	C310.645355,304.946503 305.197662,298.716858 307.984039,295.045288 
	C310.034760,296.799530 308.883179,302.683441 314.331085,300.009308 
	C313.201843,301.866882 312.240540,303.448151 311.081055,305.372894 
z"/>
<path fill="#D1AE0F" opacity="1.000000" stroke="none" 
	d="
M103.579727,305.306427 
	C105.499985,305.473602 107.140488,305.388489 108.780991,305.303375 
	C108.829361,305.596405 108.877739,305.889404 108.926109,306.182434 
	C106.816376,306.364227 104.270882,307.349976 102.716408,306.507385 
	C101.080994,305.620880 99.301018,302.802582 99.575996,301.162323 
	C99.899277,299.233887 102.070770,297.019562 103.994164,296.141663 
	C105.560776,295.426575 107.942612,296.497559 109.426109,297.760284 
	C107.324097,297.890961 103.918869,297.330933 103.403877,298.302673 
	C102.465096,300.073975 103.240005,302.753510 103.579727,305.306427 
z"/>
<path fill="#BFA816" opacity="1.000000" stroke="none" 
	d="
M219.015152,305.789917 
	C219.069733,303.459534 219.069733,301.532379 219.069733,299.220764 
	C222.139954,300.793884 226.796173,296.497955 229.480896,301.741119 
	C226.751328,301.577240 224.510880,301.014740 222.589218,301.565155 
	C221.938019,301.751709 222.092361,304.750427 221.806320,307.043243 
	C221.142609,306.844971 220.051590,306.519104 219.015152,305.789917 
z"/>
<path fill="#BFA816" opacity="1.000000" stroke="none" 
	d="
M358.009491,301.995178 
	C356.656982,301.742554 354.344177,300.944092 354.122437,301.334198 
	C353.277618,302.820465 353.107391,304.690216 352.542511,306.999817 
	C347.347229,306.789673 351.795227,301.603851 348.627686,299.470947 
	C352.488770,299.301300 355.193359,299.106262 357.890472,299.181183 
	C358.161987,299.188721 358.388092,300.829834 358.314819,301.849976 
	C357.994385,301.987091 358.009491,301.995148 358.009491,301.995178 
z"/>
<path fill="#BDA717" opacity="1.000000" stroke="none" 
	d="
M195.111542,303.454224 
	C195.326111,301.773285 195.542435,300.502289 195.758774,299.231323 
	C196.441284,300.426208 197.238647,301.572693 197.768829,302.831726 
	C198.169830,303.784027 198.229675,304.880005 199.533920,306.045227 
	C200.003586,304.383301 200.473236,302.721375 201.134827,300.380219 
	C202.178223,304.374420 201.803894,306.615784 197.683853,307.065643 
	C194.706299,307.390717 194.833557,305.836700 195.111542,303.454224 
z"/>
<path fill="#E3B409" opacity="1.000000" stroke="none" 
	d="
M324.628845,297.276306 
	C324.463409,300.273010 324.340149,302.840240 324.201904,305.720062 
	C326.074860,305.912537 327.813416,306.091187 329.552002,306.269836 
	C329.538788,306.441010 329.525574,306.612183 329.512390,306.783356 
	C326.945526,306.783356 324.378662,306.783356 322.077911,306.783356 
	C322.077911,303.858429 322.133789,301.101715 322.060394,298.348419 
	C322.000519,296.100616 322.422180,294.955475 324.628845,297.276306 
z"/>
<path fill="#D1AE0F" opacity="1.000000" stroke="none" 
	d="
M269.953522,305.964996 
	C268.301453,305.918549 266.278778,306.419678 265.124237,305.638214 
	C264.319519,305.093536 264.099976,301.810883 264.673004,301.456757 
	C266.362457,300.412689 268.576385,300.217255 270.585052,299.689667 
	C270.803436,300.264557 271.021790,300.839417 271.240173,301.414276 
	C269.843689,302.181000 268.447205,302.947723 266.288330,304.132996 
	C267.423859,304.853363 268.315125,305.418793 269.597656,305.990204 
	C269.988953,305.996216 269.953522,305.964996 269.953522,305.964996 
z"/>
<path fill="#E3B409" opacity="1.000000" stroke="none" 
	d="
M259.841949,302.702637 
	C259.842468,300.034668 259.842468,297.782990 259.842468,295.561066 
	C261.253815,296.036896 261.253815,296.036896 262.115417,306.739502 
	C257.572418,307.898315 260.518402,304.341431 259.841949,302.702637 
z"/>
<path fill="#F8BC04" opacity="1.000000" stroke="none" 
	d="
M242.904816,304.209808 
	C242.922546,301.394440 242.922546,298.968658 242.922546,296.559052 
	C244.982300,296.600342 244.939072,296.601257 245.022583,300.539917 
	C245.064728,302.527313 245.296448,304.510681 245.459473,306.727234 
	C244.668060,306.727234 243.292984,306.727234 241.823700,306.727234 
	C242.238373,305.897491 242.562729,305.248444 242.904816,304.209808 
z"/>
<path fill="#F0BA06" opacity="1.000000" stroke="none" 
	d="
M130.178711,298.315369 
	C130.749329,298.980042 131.714737,299.440613 131.664001,299.632355 
	C131.069550,301.879639 130.322510,304.086578 129.539093,306.544708 
	C127.380890,306.501404 126.779205,300.649902 129.686417,295.805450 
	C129.880188,296.823700 129.990814,297.405029 130.178711,298.315369 
z"/>
<path fill="#E1B30A" opacity="1.000000" stroke="none" 
	d="
M170.587891,306.522308 
	C165.827377,303.311005 165.750351,299.852722 169.975998,297.382477 
	C170.264847,299.829987 170.574570,302.454529 170.881271,305.612488 
	C170.878235,306.145935 170.587891,306.522308 170.587891,306.522308 
z"/>
<path fill="#F0BA06" opacity="1.000000" stroke="none" 
	d="
M191.960541,306.883698 
	C191.221329,306.755524 189.834976,306.617676 189.836746,306.500610 
	C189.892715,302.767670 190.083145,299.036713 190.253265,295.305481 
	C190.862198,295.299469 191.471130,295.293427 192.080063,295.287415 
	C192.080063,298.495087 192.080063,301.702789 192.061523,305.625580 
	C192.015518,306.521667 191.988022,306.702667 191.960541,306.883698 
z"/>
<path fill="#BFA816" opacity="1.000000" stroke="none" 
	d="
M216.342651,306.124573 
	C215.249832,305.083496 214.462662,304.078705 213.601578,302.979584 
	C214.285873,302.163574 215.029449,301.276917 216.294754,299.768097 
	C216.435501,302.313141 216.541885,304.237030 216.342651,306.124573 
z"/>
<path fill="#E1B30A" opacity="1.000000" stroke="none" 
	d="
M171.034637,305.966980 
	C172.273773,305.931000 173.356491,306.074005 174.439209,306.217010 
	C174.437408,306.438202 174.435593,306.659393 174.433777,306.880585 
	C173.360596,306.880585 172.287415,306.880585 170.901062,306.701447 
	C170.587891,306.522308 170.878235,306.145935 171.034637,305.966980 
z"/>
<path fill="#BDA717" opacity="1.000000" stroke="none" 
	d="
M192.219940,306.883698 
	C191.988022,306.702667 192.015518,306.521667 192.096146,306.070923 
	C192.259308,306.161987 192.369324,306.522858 192.219940,306.883698 
z"/>
<path fill="#D1AE0F" opacity="1.000000" stroke="none" 
	d="
M270.002319,306.015625 
	C270.104279,306.002197 270.192932,305.969391 270.117554,305.950806 
	C269.953522,305.964996 269.988953,305.996216 270.002319,306.015625 
z"/>
<path fill="#BFA816" opacity="1.000000" stroke="none" 
	d="
M357.991272,301.975586 
	C357.988129,301.964111 358.048645,302.085846 358.029053,302.040497 
	C358.009491,301.995148 357.994385,301.987091 357.991272,301.975586 
z"/>
<path fill="#27744D" opacity="1.000000" stroke="none" 
	d="
M214.238129,254.189590 
	C215.979752,249.818802 217.459396,245.751831 219.247833,241.825516 
	C219.853485,240.495865 221.239838,239.521820 222.269440,238.385284 
	C223.308517,239.484283 224.755127,240.407150 225.318939,241.711594 
	C228.416336,248.877808 231.232742,256.164917 234.277496,263.354645 
	C236.091919,267.639130 237.086670,272.641388 242.584305,274.575745 
	C236.834000,274.575745 231.083710,274.575745 223.679596,274.575745 
	C227.664780,272.824493 230.135727,271.633728 228.427322,267.798340 
	C227.258774,265.174927 226.210037,263.584351 223.100479,264.012939 
	C221.303741,264.260590 219.412537,264.277161 217.620758,264.012543 
	C213.840668,263.454254 212.223984,265.681732 212.164993,268.735626 
	C212.129669,270.564392 213.636963,272.422974 214.781158,275.016846 
	C211.153259,275.016846 206.648590,274.595764 202.256195,275.118408 
	C196.111176,275.849518 191.903427,273.831360 188.574295,268.597931 
	C186.262985,264.964508 183.007004,261.932068 179.752670,258.141418 
	C177.450165,268.516937 178.315582,270.773468 186.070190,274.569336 
	C179.227478,274.569336 173.221771,274.569336 167.216064,274.569336 
	C172.146942,272.910278 171.952271,269.077332 171.894119,265.199738 
	C171.806793,259.375519 172.166824,253.527298 171.741623,247.732971 
	C171.538864,244.969925 169.965759,242.307449 168.873383,239.201309 
	C176.012115,239.264954 184.580338,237.308502 192.670410,240.832611 
	C194.934937,241.819046 197.487549,245.193329 197.511551,247.497208 
	C197.541107,250.335373 195.320343,253.373199 193.555923,255.974625 
	C192.751999,257.159882 190.709732,257.505219 188.839386,258.422729 
	C192.469711,262.579193 195.800735,266.704559 199.469055,270.504303 
	C203.054840,274.218506 206.268387,273.582611 208.330750,268.878326 
	C210.397110,264.164948 212.186295,259.330078 214.238129,254.189590 
M187.571518,254.209290 
	C191.040985,251.675507 191.120026,248.103745 189.487427,244.858170 
	C187.330353,240.570007 183.138382,241.709641 179.175507,241.960907 
	C179.175507,246.597519 179.175507,250.969971 179.175507,255.878754 
	C182.022079,255.418427 184.447708,255.026169 187.571518,254.209290 
M223.903030,255.818253 
	C222.843430,253.136780 221.783829,250.455307 220.413315,246.987015 
	C218.419067,252.080276 216.749725,256.343750 215.010254,260.786316 
	C218.669800,260.786316 221.852081,260.786316 225.429962,260.786316 
	C224.904709,259.076965 224.524429,257.839355 223.903030,255.818253 
z"/>
<path fill="#25744D" opacity="1.000000" stroke="none" 
	d="
M259.513824,153.673737 
	C264.509338,152.527008 269.504822,151.380264 274.500336,150.233536 
	C274.833405,151.019012 275.166443,151.804504 275.499512,152.589981 
	C270.968994,155.103470 266.438477,157.616959 261.114044,160.076080 
	C258.726959,160.125305 257.133759,160.228897 255.540588,160.332489 
	C255.563446,160.889877 255.586304,161.447281 255.609161,162.004669 
	C257.401611,162.004669 259.194092,162.004669 260.986542,162.004669 
	C265.261627,164.378174 269.536682,166.751663 273.931091,169.858902 
	C274.052246,170.884918 274.054077,171.177185 274.055908,171.469482 
	C268.865326,170.754013 263.674774,170.038544 259.158661,169.416031 
	C260.265472,174.322510 261.424072,179.458603 262.582672,184.594711 
	C262.058594,184.800568 261.534546,185.006439 261.010468,185.212296 
	C256.900726,180.896240 252.972168,176.456467 251.484955,169.733215 
	C251.552475,166.277649 251.771072,163.335617 252.033463,159.804230 
	C249.665741,160.431168 248.295486,160.794006 245.922226,161.422409 
	C251.937469,162.910477 249.363251,167.077515 250.040894,170.104965 
	C250.697495,177.041199 245.677963,181.064835 241.800751,185.829376 
	C241.186096,180.301636 241.364212,174.954178 244.361542,169.404144 
	C244.705231,168.444305 244.723846,168.007629 244.742477,167.570938 
	C244.288055,167.811142 243.833618,168.051346 243.379181,168.291534 
	C238.126144,169.927811 232.873108,171.564087 227.620071,173.200363 
	C227.371353,172.610596 227.122635,172.020828 226.873917,171.431076 
	C231.202805,167.151291 235.566299,162.922806 242.824936,161.960526 
	C243.844254,161.530640 244.192657,161.130035 244.541077,160.729431 
	C244.046371,160.778885 243.551682,160.828354 243.056976,160.877808 
	C235.727127,161.131958 231.271118,156.113464 226.311386,151.819000 
	C232.342758,152.204880 238.570679,151.014359 244.207779,155.535553 
	C244.760712,156.018997 244.854385,156.164352 245.097015,156.457718 
	C245.639755,156.417984 246.033508,156.230209 246.196075,155.854782 
	C245.659760,155.430756 245.354645,155.194397 245.049545,154.958038 
	C243.589279,149.598892 242.129013,144.239731 241.094208,138.426575 
	C241.752808,137.952911 241.985977,137.933258 242.219162,137.913589 
	C245.278580,142.227127 248.337982,146.540680 251.045044,150.357422 
	C253.268250,147.056610 256.239166,142.645645 259.874725,138.102097 
	C260.788574,137.977585 261.037781,137.985626 261.286987,137.993652 
	C260.476868,142.623047 259.666718,147.252441 258.529510,152.394073 
	C258.077789,153.213928 257.953156,153.521530 257.566498,153.935806 
	C257.154602,154.377975 257.004730,154.713501 256.583862,155.077087 
	C256.021545,155.409805 255.730225,155.714447 255.438919,156.019104 
	C255.640976,156.199539 255.843048,156.379990 256.045105,156.560425 
	C256.344025,156.091309 256.642975,155.622177 257.220490,155.123108 
	C257.772278,154.851578 258.045441,154.610031 258.541748,154.298889 
	C259.050110,154.092072 259.299774,153.906891 259.513824,153.673737 
M257.673065,166.626999 
	C257.074341,166.223251 256.475586,165.819504 255.876846,165.415771 
	C255.736191,165.808167 255.595535,166.200546 255.454865,166.592941 
	C256.183594,166.808151 256.912323,167.023376 257.673065,166.626999 
M253.481277,163.598282 
	C253.481277,163.598282 253.405609,163.476212 253.481277,163.598282 
z"/>
<path fill="#27744D" opacity="1.000000" stroke="none" 
	d="
M278.637665,268.261871 
	C273.010925,259.797729 273.452271,251.242630 279.592438,244.736069 
	C285.912262,238.039139 296.521179,236.472427 304.826721,241.009491 
	C312.408508,245.151215 316.148804,253.562454 314.015198,261.672668 
	C310.651611,274.458008 293.441864,279.819641 282.186737,271.557007 
	C280.990784,270.679016 279.979431,269.549591 278.637665,268.261871 
M290.424438,242.298599 
	C281.696289,245.431595 280.996429,262.175995 285.960999,268.291992 
	C290.956696,274.446381 300.963501,273.732666 304.225891,266.367340 
	C305.821259,262.765533 306.185974,258.313477 306.010712,254.294113 
	C305.607178,245.040466 300.393280,241.000763 290.424438,242.298599 
z"/>
<path fill="#28754D" opacity="1.000000" stroke="none" 
	d="
M243.945541,264.685791 
	C244.091629,263.992523 244.227280,263.715637 244.362930,263.438782 
	C245.005630,264.173340 245.844971,264.811707 246.259140,265.658112 
	C248.947433,271.151703 253.240433,273.667419 258.786346,272.019318 
	C260.791962,271.423340 263.184357,269.283447 263.680023,267.396240 
	C264.044373,266.009003 261.968933,263.382660 260.333618,262.213928 
	C258.085754,260.607361 255.179993,259.952271 252.638245,258.720093 
	C245.579422,255.298096 242.948715,249.902237 245.513840,244.329346 
	C247.834641,239.287323 254.770325,237.144501 261.203705,239.370255 
	C262.777863,239.914856 264.481415,240.085373 266.756012,240.559219 
	C266.756012,242.646652 266.756012,245.656464 266.756012,249.951843 
	C265.477753,248.110657 265.003754,246.925308 264.131592,246.269440 
	C261.851074,244.554443 259.503296,242.073334 256.978363,241.803070 
	C254.865768,241.576935 252.464951,244.043320 250.191757,245.317413 
	C251.591202,247.279785 252.605606,249.815048 254.478119,251.073563 
	C257.472473,253.086075 261.127563,254.082397 264.336853,255.816437 
	C268.505310,258.068695 270.846161,261.580170 269.973877,266.502472 
	C269.146759,271.169952 265.766602,273.959900 261.518188,274.633270 
	C257.734741,275.232941 253.714737,274.349976 249.800034,274.106873 
	C248.239319,274.009918 246.681030,273.874084 243.935104,273.666077 
	C243.935104,271.308533 243.935104,268.205383 243.945541,264.685791 
z"/>
<path fill="#25744E" opacity="1.000000" stroke="none" 
	d="
M230.792053,193.952911 
	C232.751450,193.952911 234.235931,193.952911 236.297760,193.952911 
	C236.508133,197.344879 236.701202,200.458038 236.963776,204.691742 
	C230.095047,196.099030 229.838104,195.995132 219.366760,197.035202 
	C219.366760,201.526932 219.366760,206.065933 219.366760,210.585022 
	C224.445602,211.647263 227.757462,209.737457 230.069580,205.133957 
	C230.069580,209.736633 230.069580,214.339294 230.069580,218.941956 
	C227.665146,214.526871 224.294922,212.754654 219.492889,213.872757 
	C217.777115,224.610687 218.321884,225.955292 226.748291,229.521393 
	C219.551071,229.521393 213.497971,229.521393 207.444855,229.521393 
	C213.504883,227.758545 211.949036,222.816452 211.998520,218.612961 
	C212.063171,213.122971 212.273849,207.613525 211.895081,202.148972 
	C211.721664,199.647247 210.291092,197.232666 209.141174,193.952896 
	C215.459579,193.952896 222.888367,193.952896 230.792053,193.952911 
z"/>
<path fill="#24734E" opacity="1.000000" stroke="none" 
	d="
M271.018372,193.955826 
	C279.329620,193.955872 287.144806,193.955872 295.424377,193.955872 
	C295.424377,197.449585 295.424377,200.603149 295.424377,203.756729 
	C295.175537,203.851440 294.926727,203.946152 294.677887,204.040863 
	C294.199310,202.993347 293.687286,201.959641 293.248199,200.895828 
	C291.694061,197.130295 285.162109,194.682877 281.961365,196.967850 
	C281.051331,197.617538 280.675751,199.494186 280.648224,200.820480 
	C280.516754,207.150452 280.578033,213.484711 280.592682,219.817383 
	C280.608429,226.618042 280.619080,226.618011 286.587250,229.383789 
	C280.200989,229.383789 273.814697,229.383789 267.428436,229.383789 
	C274.996979,228.364853 273.392731,222.610611 273.462128,217.823883 
	C273.537018,212.658813 273.682861,207.479630 273.374634,202.331924 
	C273.258148,200.385986 272.208618,197.049255 271.153900,196.869247 
	C267.556458,196.255356 263.314270,195.462082 261.050568,199.886047 
	C260.399292,201.158798 260.063324,202.592911 258.793823,203.851776 
	C258.793823,200.720688 258.793823,197.589600 258.793823,193.955780 
	C262.931702,193.955780 266.727020,193.955780 271.018372,193.955826 
z"/>
<path fill="#26744E" opacity="1.000000" stroke="none" 
	d="
M252.465393,193.951920 
	C253.793381,194.083374 254.689392,194.214111 255.992996,194.404327 
	C248.903351,199.626144 249.159485,224.946793 256.545959,229.556366 
	C250.454681,229.556366 245.088928,229.556366 239.723160,229.556366 
	C244.792282,227.872604 244.243256,223.766266 244.221222,219.874329 
	C244.188339,214.066101 244.475662,208.239670 244.087570,202.457184 
	C243.909836,199.808975 242.448380,197.246918 241.334305,193.951218 
	C244.122757,193.951218 248.078079,193.951218 252.465393,193.951920 
z"/>
<path fill="#22734F" opacity="1.000000" stroke="none" 
	d="
M330.099945,244.669556 
	C330.037476,251.936783 330.140961,258.763885 329.959137,265.583435 
	C329.855347,269.476929 330.065460,272.922607 334.715088,274.507477 
	C329.309174,274.507477 323.903290,274.507477 316.704651,274.507477 
	C324.386414,272.204529 323.008026,267.111847 323.040161,262.581665 
	C323.074402,257.755035 323.341888,252.902832 322.933929,248.110626 
	C322.691742,245.266037 321.342285,242.515717 320.411194,239.462326 
	C323.996155,239.462326 328.885254,239.462326 333.905945,239.462326 
	C332.584229,241.137115 331.365265,242.681702 330.099945,244.669556 
z"/>
<path fill="#23734F" opacity="1.000000" stroke="none" 
	d="
M301.009277,171.084869 
	C298.432159,172.589676 296.305695,174.207169 293.919495,175.201324 
	C291.327698,176.281143 288.494385,176.781189 285.719330,177.547012 
	C283.946228,167.823944 296.623291,157.519669 308.808533,158.583817 
	C306.166870,162.951431 303.756165,166.937210 301.009277,171.084869 
z"/>
<path fill="#23734E" opacity="1.000000" stroke="none" 
	d="
M217.918243,174.883118 
	C214.603333,174.889252 211.463455,174.655533 208.382111,174.098267 
	C207.137848,173.873230 206.073776,172.562988 204.838425,172.392181 
	C197.425629,171.367294 196.812744,164.679504 192.831757,159.103668 
	C200.047684,159.623688 206.100677,158.849670 210.460556,164.644394 
	C211.759872,166.371292 214.563400,166.942444 215.942734,168.640228 
	C217.188965,170.174210 217.431595,172.523514 217.918243,174.883118 
z"/>
<path fill="#2C764B" opacity="1.000000" stroke="none" 
	d="
M250.288452,170.014221 
	C249.363251,167.077515 251.937469,162.910477 245.922226,161.422409 
	C248.295486,160.794006 249.665741,160.431168 252.033463,159.804230 
	C251.771072,163.335617 251.552475,166.277649 251.191116,169.509064 
	C250.877579,169.840103 250.706802,169.881790 250.288452,170.014221 
z"/>
<path fill="#26744D" opacity="1.000000" stroke="none" 
	d="
M260.858276,161.682312 
	C259.194092,162.004669 257.401611,162.004669 255.609161,162.004669 
	C255.586304,161.447281 255.563446,160.889877 255.540588,160.332489 
	C257.133759,160.228897 258.726959,160.125305 260.743805,160.041138 
	C261.021667,160.493683 260.875854,160.926819 260.858276,161.682312 
z"/>
<path fill="#26744D" opacity="1.000000" stroke="none" 
	d="
M243.054077,161.155273 
	C243.551682,160.828354 244.046371,160.778885 244.541077,160.729431 
	C244.192657,161.130035 243.844254,161.530640 243.207947,161.951599 
	C242.963776,161.792206 243.007477,161.612457 243.054077,161.155273 
z"/>
<path fill="#26744D" opacity="1.000000" stroke="none" 
	d="
M242.077896,137.658142 
	C241.985977,137.933258 241.752808,137.952911 241.167816,137.986343 
	C241.189545,137.800980 241.563080,137.601837 242.077896,137.658142 
z"/>
<path fill="#26744D" opacity="1.000000" stroke="none" 
	d="
M261.228638,137.694458 
	C261.037781,137.985626 260.788574,137.977585 260.166138,137.944244 
	C260.252045,137.744385 260.711151,137.569824 261.228638,137.694458 
z"/>
<path fill="#26744D" opacity="1.000000" stroke="none" 
	d="
M274.377808,171.379120 
	C274.054077,171.177185 274.052246,170.884918 274.079834,170.155060 
	C274.306091,170.241226 274.502899,170.764999 274.377808,171.379120 
z"/>
<path fill="#498041" opacity="1.000000" stroke="none" 
	d="
M233.258667,357.528381 
	C234.749283,358.887756 236.308502,359.858337 238.705124,361.350250 
	C238.705124,358.320862 238.705124,356.930969 238.705124,355.541077 
	C239.219940,355.454620 239.734741,355.368164 240.249557,355.281708 
	C240.421371,356.693237 241.153702,358.360687 240.650009,359.463745 
	C239.551743,361.868958 241.602921,365.819855 237.210663,367.831390 
	C237.716171,365.063538 238.016541,363.418884 238.399567,361.321655 
	C236.125320,361.321655 234.395050,361.321655 232.305801,361.321655 
	C232.416077,362.670624 232.528793,364.049286 232.671417,365.793945 
	C231.788452,365.845886 230.869278,365.899994 230.170303,365.941132 
	C229.798080,365.717072 229.522614,365.606506 229.533295,365.549774 
	C230.210968,361.946808 230.898788,358.345337 231.687637,354.766205 
	C231.707077,354.677979 232.869629,354.841675 233.499023,354.887878 
	C233.441772,355.638458 233.384506,356.389008 233.258667,357.528381 
z"/>
<path fill="#54833D" opacity="1.000000" stroke="none" 
	d="
M307.035675,354.021454 
	C305.551453,350.749542 304.067200,347.477631 302.012207,342.947510 
	C305.200562,344.035095 307.746277,344.903473 311.388855,346.145996 
	C309.307678,346.739563 308.310120,347.024078 306.437103,347.558289 
	C307.698914,349.553436 308.781982,351.265930 309.948151,353.109833 
	C309.373474,353.367126 308.497162,353.759460 307.307709,354.070679 
	C306.994537,353.989532 307.035675,354.021454 307.035675,354.021454 
z"/>
<path fill="#54833D" opacity="1.000000" stroke="none" 
	d="
M223.024078,352.309204 
	C223.393127,356.142975 223.393127,359.832214 223.393127,364.026154 
	C221.447083,363.714813 220.276367,363.527527 219.531281,363.408325 
	C220.562119,360.084534 221.498825,357.064270 222.523468,353.760437 
	C220.836365,353.164276 219.596985,352.726318 218.357605,352.288361 
	C218.418381,352.049164 218.479172,351.809967 218.539948,351.570801 
	C219.911652,351.768738 221.283340,351.966705 223.024078,352.309204 
z"/>
<path fill="#498041" opacity="1.000000" stroke="none" 
	d="
M249.938904,360.966766 
	C249.803162,363.194397 249.667419,365.422058 249.531677,367.649689 
	C249.174728,367.542603 248.817780,367.435516 248.460815,367.328430 
	C247.252396,363.621155 246.043976,359.913879 244.835541,356.206604 
	C245.026886,355.989594 245.218216,355.772583 245.409546,355.555573 
	C246.701050,357.320007 247.992569,359.084412 249.628235,360.915649 
	C249.972397,360.982452 249.938919,360.966766 249.938904,360.966766 
z"/>
<path fill="#498041" opacity="1.000000" stroke="none" 
	d="
M277.903564,363.848206 
	C277.193451,364.047485 276.078613,363.988861 275.987854,363.653259 
	C275.146790,360.543884 274.482300,357.386719 274.512787,353.701050 
	C275.333099,354.923676 276.153381,356.146332 277.232086,357.754120 
	C277.861389,357.577667 278.808411,357.312134 279.031281,357.249664 
	C278.698242,359.206268 278.336060,361.334045 277.903564,363.848206 
z"/>
<path fill="#54833D" opacity="1.000000" stroke="none" 
	d="
M185.511795,343.460876 
	C186.685059,341.454895 187.657776,339.756744 188.778778,337.799744 
	C189.654694,338.309998 190.477310,338.789185 190.866516,339.015930 
	C188.937408,342.144867 187.057724,345.193634 185.141296,348.302032 
	C182.978912,347.319672 182.978912,347.319672 185.511795,343.460876 
z"/>
<path fill="#498041" opacity="1.000000" stroke="none" 
	d="
M323.295471,334.739380 
	C324.748993,334.567474 326.201416,334.385315 327.656311,334.225769 
	C330.779785,333.883240 332.358276,335.073090 332.023499,337.645660 
	C328.815979,337.095520 325.790558,336.576660 322.811646,335.579956 
	C323.003876,334.981232 323.149658,334.860321 323.295471,334.739380 
z"/>
<path fill="#498041" opacity="1.000000" stroke="none" 
	d="
M313.893860,342.298218 
	C313.172241,340.980835 312.637939,339.971680 311.646515,338.099060 
	C314.924072,339.989838 316.994995,341.184509 319.065948,342.379211 
	C318.803497,341.849396 318.541046,341.319550 318.278625,340.789734 
	C317.191284,341.770325 316.103943,342.750885 315.016602,343.731476 
	C315.380341,344.240234 315.744110,344.748993 316.107880,345.257751 
	C315.432312,344.373993 314.756744,343.490234 313.893860,342.298218 
z"/>
<path fill="#498041" opacity="1.000000" stroke="none" 
	d="
M317.626434,345.781616 
	C318.497589,346.512207 318.982574,347.194427 319.467560,347.876678 
	C318.906647,348.149902 318.345734,348.423126 317.784790,348.696350 
	C317.603302,347.708649 317.421814,346.720978 317.626434,345.781616 
z"/>
<path fill="#498041" opacity="1.000000" stroke="none" 
	d="
M322.618225,335.254395 
	C322.262054,334.424286 322.145752,333.441956 322.029449,332.459595 
	C322.230377,332.426880 322.431305,332.394135 322.632263,332.361420 
	C322.800568,332.942413 322.968903,333.523438 323.216339,334.421906 
	C323.149658,334.860321 323.003876,334.981232 322.618225,335.254395 
z"/>
<path fill="#54833D" opacity="1.000000" stroke="none" 
	d="
M306.976746,353.970520 
	C306.884521,354.015991 306.810089,354.080444 306.885651,354.083191 
	C307.035675,354.021454 306.994537,353.989532 306.976746,353.970520 
z"/>
<path fill="#498041" opacity="1.000000" stroke="none" 
	d="
M249.979675,360.997803 
	C249.986938,361.013123 250.163239,360.769318 250.163239,360.769318 
	C250.163239,360.769318 250.090897,360.851532 250.014908,360.909149 
	C249.938919,360.966766 249.972397,360.982452 249.979675,360.997803 
z"/>
<path fill="#F8BC04" opacity="1.000000" stroke="none" 
	d="
M187.222427,254.421600 
	C184.447708,255.026169 182.022079,255.418427 179.175507,255.878754 
	C179.175507,250.969971 179.175507,246.597519 179.175507,241.960907 
	C183.138382,241.709641 187.330353,240.570007 189.487427,244.858170 
	C191.120026,248.103745 191.040985,251.675507 187.222427,254.421600 
z"/>
<path fill="#F0BA06" opacity="1.000000" stroke="none" 
	d="
M224.023590,256.210022 
	C224.524429,257.839355 224.904709,259.076965 225.429962,260.786316 
	C221.852081,260.786316 218.669800,260.786316 215.010254,260.786316 
	C216.749725,256.343750 218.419067,252.080276 220.413315,246.987015 
	C221.783829,250.455307 222.843430,253.136780 224.023590,256.210022 
z"/>
<path fill="#2C764B" opacity="1.000000" stroke="none" 
	d="
M257.657043,166.932800 
	C256.912323,167.023376 256.183594,166.808151 255.454865,166.592941 
	C255.595535,166.200546 255.736191,165.808167 255.876846,165.415771 
	C256.475586,165.819504 257.074341,166.223251 257.657043,166.932800 
z"/>
<path fill="#26744D" opacity="1.000000" stroke="none" 
	d="
M256.941895,155.153061 
	C256.642975,155.622177 256.344025,156.091309 256.045105,156.560425 
	C255.843048,156.379990 255.640976,156.199539 255.438919,156.019104 
	C255.730225,155.714447 256.021545,155.409805 256.644012,155.071259 
	C256.975159,155.037354 256.941895,155.153061 256.941895,155.153061 
z"/>
<path fill="#FBBD03" opacity="1.000000" stroke="none" 
	d="
M243.576752,168.530823 
	C243.833618,168.051346 244.288055,167.811142 244.742477,167.570938 
	C244.723846,168.007629 244.705231,168.444305 244.454971,169.039764 
	C244.073685,169.055725 243.924011,168.912918 243.576752,168.530823 
z"/>
<path fill="#26744D" opacity="1.000000" stroke="none" 
	d="
M246.427261,156.042450 
	C246.033508,156.230209 245.639755,156.417984 245.473816,156.429535 
	C245.943497,156.183029 246.185379,156.112747 246.427261,156.042450 
z"/>
<path fill="#2C764B" opacity="1.000000" stroke="none" 
	d="
M253.443451,163.537247 
	C253.405609,163.476212 253.481277,163.598282 253.443451,163.537247 
z"/>
<path fill="#FBBD03" opacity="1.000000" stroke="none" 
	d="
M246.196075,155.854782 
	C246.185379,156.112747 245.943497,156.183029 245.324829,156.281494 
	C244.854385,156.164352 244.760712,156.018997 244.537354,155.651978 
	C244.407669,155.430328 244.725220,155.189667 244.887390,155.073853 
	C245.354645,155.194397 245.659760,155.430756 246.196075,155.854782 
z"/>
<path fill="#FBBD03" opacity="1.000000" stroke="none" 
	d="
M258.318604,154.368469 
	C258.045441,154.610031 257.772278,154.851578 257.220490,155.123108 
	C256.941895,155.153061 256.975159,155.037354 256.914978,155.043182 
	C257.004730,154.713501 257.154602,154.377975 257.691376,154.068497 
	C258.078278,154.094528 258.318604,154.368469 258.318604,154.368469 
z"/>
<path fill="#FBBD03" opacity="1.000000" stroke="none" 
	d="
M257.953400,153.961838 
	C257.953156,153.521530 258.077789,153.213928 258.405640,152.755386 
	C258.767487,152.774933 258.926117,152.945435 259.299255,153.394836 
	C259.299774,153.906891 259.050110,154.092072 258.541748,154.298874 
	C258.318604,154.368469 258.078278,154.094528 257.953400,153.961838 
z"/>
<path fill="#FABD03" opacity="1.000000" stroke="none" 
	d="
M290.819763,242.176208 
	C300.393280,241.000763 305.607178,245.040466 306.010712,254.294113 
	C306.185974,258.313477 305.821259,262.765533 304.225891,266.367340 
	C300.963501,273.732666 290.956696,274.446381 285.960999,268.291992 
	C280.996429,262.175995 281.696289,245.431595 290.819763,242.176208 
z"/>
</svg>